<svg width="40" height="40" viewBox="0 0 15 15" fill="none" xmlns="http://www.w3.org/2000/svg">
<path fill-rule="evenodd" clip-rule="evenodd" d="M14.5543 1.63764C14.6434 1.54867 14.7141 1.44303 14.7623 1.32674C14.8106 1.21045 14.8355 1.0858 14.8355 0.959897C14.8356 0.833997 14.8109 0.709314 14.7628 0.592967C14.7147 0.47662 14.6441 0.370888 14.5551 0.281808C14.4662 0.192728 14.3605 0.122045 14.2442 0.0737929C14.128 0.0255413 14.0033 0.000666673 13.8774 0.000589291C13.7515 0.000511909 13.6268 0.0252333 13.5105 0.0733419C13.3941 0.121451 13.2884 0.192004 13.1993 0.280975L7.41764 6.06264L1.63764 0.280975C1.45774 0.10107 1.21373 -1.89561e-09 0.959308 0C0.704884 1.89561e-09 0.46088 0.10107 0.280975 0.280975C0.10107 0.46088 1.89561e-09 0.704884 0 0.959308C-1.89561e-09 1.21373 0.10107 1.45774 0.280975 1.63764L6.06264 7.41764L0.280975 13.1976C0.191895 13.2867 0.121233 13.3925 0.0730228 13.5089C0.0248131 13.6253 0 13.75 0 13.876C0 14.002 0.0248131 14.1267 0.0730228 14.2431C0.121233 14.3595 0.191895 14.4652 0.280975 14.5543C0.46088 14.7342 0.704884 14.8353 0.959308 14.8353C1.08529 14.8353 1.21003 14.8105 1.32642 14.7623C1.44281 14.714 1.54856 14.6434 1.63764 14.5543L7.41764 8.77264L13.1993 14.5543C13.3792 14.734 13.6231 14.8348 13.8774 14.8347C14.1317 14.8345 14.3755 14.7334 14.5551 14.5535C14.7348 14.3736 14.8357 14.1297 14.8355 13.8754C14.8354 13.6211 14.7342 13.3773 14.5543 13.1976L8.77264 7.41764L14.5543 1.63764Z" fill="#B84C36"/>
</svg>
