<svg width="951" height="582" viewBox="0 0 951 582" fill="none" xmlns="http://www.w3.org/2000/svg">
<path opacity="0.5" d="M264.773 35.6821C296.761 44.9012 312.55 15.4514 344.041 4.89203C388.81 -10.1201 432.155 11.5067 461.016 -25.8224C502.266 -79.1748 455.435 -156.928 394.173 -185.682C312.617 -223.96 195.972 -130.432 214.458 -42.325C221.894 -6.88291 229.967 25.6505 264.773 35.6821Z" fill="white" fill-opacity="0.25" stroke="white" stroke-width="2"/>
<path opacity="0.5" d="M209.433 110.043C261.953 125.18 287.877 76.8266 339.582 59.4892C413.089 34.8408 484.255 70.3498 531.643 9.05944C599.371 -78.5395 522.48 -206.203 421.893 -253.413C287.988 -316.261 96.4687 -162.697 126.821 -18.0361C139.031 40.156 152.285 93.5723 209.433 110.043Z" fill="white" fill-opacity="0.25" stroke="white" stroke-width="2"/>
<path opacity="0.5" d="M58.3631 320.247C172.819 353.321 229.214 248.017 341.834 210.336C501.944 156.766 657.062 234.259 760.197 100.808C907.603 -89.9265 739.846 -368.212 520.607 -471.252C354.768 -549.195 -12.3408 -515.095 13.5205 -338.445C39.3818 -161.795 -150.526 -95.0696 -121.859 41.0448C-95.1526 167.853 -66.1794 284.258 58.3631 320.247Z" fill="white" fill-opacity="0.25" stroke="white" stroke-width="2"/>
<path opacity="0.5" d="M102.298 250.883C196.236 278.055 242.492 191.65 334.905 160.755C466.289 116.831 593.608 180.466 678.215 70.9732C799.138 -85.5194 661.395 -313.94 481.448 -398.557C345.33 -462.564 44.0649 -434.671 65.3326 -289.694C86.6002 -144.717 -69.2337 -90.0049 -45.674 21.7067C-23.7251 125.781 0.0813846 221.318 102.298 250.883Z" fill="white" fill-opacity="0.25" stroke="white" stroke-width="2"/>
<path opacity="0.5" d="M143.009 186.648C217.83 208.24 254.729 139.378 328.369 114.711C433.061 79.6432 534.454 130.264 601.919 42.9866C698.344 -81.754 588.745 -263.646 445.439 -330.951C337.038 -381.862 97.0175 -359.466 113.876 -243.982C130.734 -128.498 6.557 -84.821 25.2607 4.16055C42.6857 87.0585 61.5955 163.154 143.009 186.648Z" fill="white" fill-opacity="0.25" stroke="white" stroke-width="2"/>
<path opacity="0.5" d="M294.123 -28.1938C310.501 -23.4532 318.561 -38.5148 334.671 -43.8973C357.574 -51.5495 379.773 -40.4507 394.519 -59.5359C415.594 -86.8133 391.571 -126.641 360.197 -141.399C318.43 -161.047 258.795 -113.259 268.317 -68.1532C272.148 -50.0086 276.302 -33.3522 294.123 -28.1938Z" fill="white" fill-opacity="0.25" stroke="white" stroke-width="2"/>
</svg>
